<svg width="26" height="24" viewBox="0 0 26 24" fill="none" xmlns="http://www.w3.org/2000/svg">
<path d="M24.8359 2.82422C24.7254 2.73599 24.596 2.67426 24.4579 2.64379C24.3198 2.61332 24.1765 2.61491 24.0391 2.64844L16.8672 4.44141L9.68359 0.84375H9.67187L9.57812 0.808594H9.55469L9.47266 0.785156H9.4375L9.35547 0.761719H9.03906L1.53906 2.63672C1.33262 2.68716 1.14944 2.80625 1.01956 2.97446C0.889679 3.14267 0.820801 3.35001 0.824218 3.5625V20.4375C0.822848 20.5804 0.854999 20.7216 0.918089 20.8498C0.981179 20.978 1.07345 21.0897 1.1875 21.1758C1.35103 21.3049 1.55335 21.3751 1.76172 21.375L1.99609 21.3516L9.15625 19.5586L16.3398 23.1562H16.3516L16.4336 23.1914H16.4453L16.5391 23.2266H16.9961L24.4961 21.3516C24.6984 21.2993 24.8774 21.181 25.0048 21.0154C25.1322 20.8498 25.2006 20.6464 25.1992 20.4375V3.5625C25.2006 3.41961 25.1684 3.27839 25.1053 3.15017C25.0423 3.02196 24.95 2.91032 24.8359 2.82422ZM2.69922 4.28906L8.32422 2.88281V17.8359L2.69922 19.2422V4.28906ZM15.8242 20.8008L10.1992 17.9883V3.19922L15.8242 6.01172V20.8008ZM23.3242 19.7109L17.6992 21.1172V6.16406L23.3242 4.75781V19.7109Z" fill="#D4EF00"/>
</svg>
