<svg width="117" height="147" viewBox="0 0 117 147" fill="none" xmlns="http://www.w3.org/2000/svg">
<path d="M68.0113 1H63.688H60.2293L55.4737 6.85404L51.5827 16.7609C49.9975 17.9617 46.2218 20.3634 43.8008 20.3634C41.3797 20.3634 44.8095 22.4648 46.8271 23.5155L43.8008 32.972L39.4774 35.2236L41.6391 37.9255L43.8008 42.8789L46.8271 47.382L43.8008 50.9845L41.6391 55.4876C40.9185 53.8364 38.6128 49.9037 35.1541 47.382C30.8308 44.2298 31.6955 42.8789 30.3985 39.7267C29.3609 37.205 28.5251 43.7795 28.2368 47.382V57.7391L24.7782 67.1957L18.7256 69.4472C16.2757 71.6988 10.8571 76.2019 8.78195 76.2019H4.45865V85.2081L1 91.5124L7.48496 92.8634L8.78195 94.6646L16.5639 96.9161L21.7519 103.671H24.7782H35.1541V109.975L41.6391 116.73L43.8008 119.432L46.8271 121.683C48.8446 122.884 53.3985 125.376 55.4737 125.736C57.5489 126.096 61.8145 129.188 63.688 130.689H68.0113L70.1729 137.894H75.7932H82.7105V130.689C82.7105 128.438 88.7632 137.894 90.9248 137.894C92.6541 137.894 95.6805 139.996 96.9774 141.047L105.192 146L112.541 137.894V128.438L116 119.432L109.515 109.975L105.192 91.5124L100.004 76.2019L102.598 64.4938L100.004 60.441L90.9248 53.236V45.5807L98.2744 39.7267L100.004 32.972L94.8158 27.118C96.2569 25.9172 99.312 23.5155 100.004 23.5155C100.695 23.5155 98.2744 17.5114 96.9774 14.5093L90.9248 18.1118L85.3045 20.3634L90.9248 29.8199L82.7105 27.118V18.1118L72.3346 20.3634L75.7932 32.972L70.1729 37.9255L68.0113 47.382L70.1729 53.236H75.7932L82.7105 60.441V67.1957L85.3045 76.2019L80.1165 72.1491V64.4938L75.7932 57.7391L68.0113 60.441V69.4472L63.688 78.9037C60.9499 81.0052 54.9549 85.2081 52.8797 85.2081H46.8271L39.4774 78.9037H43.8008H50.2857L60.2293 69.4472L63.688 67.1957V60.441V53.236V42.8789L68.0113 35.2236V29.8199V23.5155H63.688L68.0113 20.3634L72.3346 14.5093V10.0062L73.6316 6.85404L72.3346 5.50311H68.0113V1Z" fill="#D4EF00" stroke="#D4EF00"/>
</svg>
