<svg width="52" height="52" viewBox="0 0 52 52" fill="none" xmlns="http://www.w3.org/2000/svg">
<path d="M19.5 8.66669V43.3334M8.66669 13C8.66669 11.8507 9.12323 10.7485 9.93589 9.93589C10.7485 9.12323 11.8507 8.66669 13 8.66669H39C40.1493 8.66669 41.2515 9.12323 42.0642 9.93589C42.8768 10.7485 43.3334 11.8507 43.3334 13V39C43.3334 40.1493 42.8768 41.2515 42.0642 42.0642C41.2515 42.8768 40.1493 43.3334 39 43.3334H13C11.8507 43.3334 10.7485 42.8768 9.93589 42.0642C9.12323 41.2515 8.66669 40.1493 8.66669 39V13Z" stroke="#D4EF00" stroke-width="2.5" stroke-linecap="round" stroke-linejoin="round"/>
<path d="M32.5 21.6667L28.1667 26L32.5 30.3334" stroke="#D4EF00" stroke-width="2.5" stroke-linecap="round" stroke-linejoin="round"/>
</svg>
