<svg width="24" height="26" viewBox="0 0 24 26" fill="none" xmlns="http://www.w3.org/2000/svg">
<path fill-rule="evenodd" clip-rule="evenodd" d="M17 15.5C18.6106 15.5001 20.159 16.1219 21.3222 17.2358C22.4855 18.3497 23.1739 19.8697 23.2438 21.4788L23.25 21.75V23C23.2502 23.6307 23.012 24.2382 22.5831 24.7007C22.1543 25.1632 21.5664 25.4464 20.9375 25.4938L20.75 25.5H3.25C2.61928 25.5002 2.01179 25.262 1.54931 24.8331C1.08684 24.4043 0.803554 23.8164 0.75625 23.1875L0.75 23V21.75C0.750093 20.1394 1.37193 18.591 2.48582 17.4278C3.59972 16.2645 5.11969 15.5761 6.72875 15.5063L7 15.5H17ZM17 18H7C6.04349 17.9999 5.12311 18.3654 4.42717 19.0216C3.73124 19.6778 3.31237 20.5751 3.25625 21.53L3.25 21.75V23H20.75V21.75C20.7501 20.7935 20.3846 19.8731 19.7284 19.1772C19.0722 18.4812 18.1749 18.0624 17.22 18.0062L17 18ZM12 0.5C13.6576 0.5 15.2473 1.15848 16.4194 2.33058C17.5915 3.50269 18.25 5.0924 18.25 6.75C18.25 8.4076 17.5915 9.99732 16.4194 11.1694C15.2473 12.3415 13.6576 13 12 13C10.3424 13 8.75268 12.3415 7.58058 11.1694C6.40848 9.99732 5.75 8.4076 5.75 6.75C5.75 5.0924 6.40848 3.50269 7.58058 2.33058C8.75268 1.15848 10.3424 0.5 12 0.5ZM12 3C11.5075 3 11.0199 3.097 10.5649 3.28545C10.11 3.47391 9.69657 3.75013 9.34835 4.09835C9.00013 4.44657 8.72391 4.85997 8.53545 5.31494C8.347 5.76991 8.25 6.25754 8.25 6.75C8.25 7.24246 8.347 7.73009 8.53545 8.18506C8.72391 8.64003 9.00013 9.05343 9.34835 9.40165C9.69657 9.74987 10.11 10.0261 10.5649 10.2145C11.0199 10.403 11.5075 10.5 12 10.5C12.9946 10.5 13.9484 10.1049 14.6517 9.40165C15.3549 8.69839 15.75 7.74456 15.75 6.75C15.75 5.75544 15.3549 4.80161 14.6517 4.09835C13.9484 3.39509 12.9946 3 12 3Z" fill="#D4EF00"/>
</svg>
